<svg width="48" height="48" viewBox="0 0 48 48" fill="none" xmlns="http://www.w3.org/2000/svg">
<path d="M24 0C37.2548 0 48 10.7452 48 24C48 37.2548 37.2548 48 24 48C10.7452 48 0 37.2548 0 24C0 10.7452 10.7452 0 24 0Z" fill="#E6E6E6"/>
<path d="M24 0C37.2548 0 48 10.7452 48 24C48 37.2548 37.2548 48 24 48C10.7452 48 0 37.2548 0 24C0 10.7452 10.7452 0 24 0Z" stroke="#E5E7EB"/>
<path d="M24.0003 17.8617C20.002 17.8617 16.75 21.0497 16.75 24.9697V35.8614H21.0274V31.4631L21.364 31.5923C22.2056 31.9148 23.0911 32.0771 24.0003 32.0771C27.9985 32.0771 31.2505 28.8891 31.2505 24.9697C31.2505 21.0497 27.9985 17.8617 24.0003 17.8617ZM24.0003 27.8845C22.3603 27.8845 21.0274 26.5777 21.0274 24.9697C21.0274 23.3612 22.3603 22.0543 24.0003 22.0543C25.6402 22.0543 26.9731 23.3612 26.9731 24.9697C26.9731 26.5777 25.6402 27.8845 24.0003 27.8845Z" fill="#414141"/>
<path d="M16.75 15.8614H20.75V11.8614H16.75V15.8614Z" fill="#00C5FF"/>
</svg>
