<svg width="48" height="48" viewBox="0 0 48 48" fill="none" xmlns="http://www.w3.org/2000/svg">
<path d="M24 0C37.2548 0 48 10.7452 48 24C48 37.2548 37.2548 48 24 48C10.7452 48 0 37.2548 0 24C0 10.7452 10.7452 0 24 0Z" fill="#FB6800"/>
<path d="M24 0C37.2548 0 48 10.7452 48 24C48 37.2548 37.2548 48 24 48C10.7452 48 0 37.2548 0 24C0 10.7452 10.7452 0 24 0Z" stroke="#E5E7EB"/>
<g clip-path="url(#clip0_3091_9086)">
<path d="M12.9404 33.732H24.6758L24.7382 33.4071L13.1653 31.0075L13.3902 29.7203L24.9631 32.2198L25.0631 31.7699L14.1277 27.0207L14.6026 25.7085L25.5631 30.32L25.788 29.9951L16.0774 22.7839L17.0772 21.2092L26.7254 28.4202L27.0128 28.0328L19.4143 18.3846L21.2765 16.8724L28.8125 26.0708L29.1375 25.7833L24.7507 14.6229L27.4128 13.4981L31.5496 24.4335L31.8745 24.3336V12.2109H36.1236V34.6564H12.9405L12.9404 33.732ZM80.4773 29.7577H85.0639V34.6944H81.2521C77.2404 34.6944 74.7783 33.3072 74.7783 28.2206V17.1976H72.0537C71.5788 17.1976 71.3288 16.6226 71.6538 16.2727L79.5399 7.32444C79.8773 6.96202 80.4897 7.19946 80.4897 7.69937V12.2609H85.0387V17.1974H80.4897V29.7576L80.4773 29.7577ZM64.1304 11.8986C61.3933 11.8986 59.3439 13.4733 58.344 15.9478H58.1565V12.2485H52.7199V34.694H58.4315V17.2973H62.2433C63.9055 17.2973 64.5178 17.6472 64.5178 19.4218V34.694H70.2294V18.3095C70.2173 13.7979 68.0547 11.8982 64.1305 11.8982L64.1304 11.8986ZM42.8468 34.6942H48.5582V12.2487H42.8468V34.6942ZM117.571 16.2226H117.334V12.2483H111.659V34.6938H117.708V17.6095H123.033V11.8982H122.295C119.495 11.8982 118.258 13.1354 117.57 16.2224L117.571 16.2226ZM109.01 22.8963V24.596H91.8883C92.2005 27.9328 94.2874 30.145 97.5118 30.145C100.399 30.145 102.486 28.6078 102.911 26.7082H108.997C107.723 31.4448 103.374 35.0692 97.4244 35.0692C90.4882 35.0692 85.7769 30.1327 85.7769 23.6589C85.7769 17.185 90.3261 11.8986 97.5746 11.8986C104.423 11.8986 109.01 16.6103 109.01 22.8966L109.01 22.8963ZM92.0627 20.4594H103.111C102.248 18.2097 100.424 16.5976 97.5994 16.5976C95.125 16.61 92.9505 17.9098 92.0627 20.4594Z" fill="white"/>
</g>
<defs>
<clipPath id="clip0_3091_9086">
<rect width="24" height="23.1193" fill="white" transform="translate(12.5 11.9712)"/>
</clipPath>
</defs>
</svg>
