<svg width="48" height="48" viewBox="0 0 48 48" fill="none" xmlns="http://www.w3.org/2000/svg">
<path d="M24 0C37.2548 0 48 10.7452 48 24C48 37.2548 37.2548 48 24 48C10.7452 48 0 37.2548 0 24C0 10.7452 10.7452 0 24 0Z" fill="#FD9CBF"/>
<path d="M24 0C37.2548 0 48 10.7452 48 24C48 37.2548 37.2548 48 24 48C10.7452 48 0 37.2548 0 24C0 10.7452 10.7452 0 24 0Z" stroke="#E5E7EB"/>
<path d="M12 29.3361C12 29.9529 12.8317 30.3201 14.1386 30.3201C15.4455 30.3201 16.3812 29.9529 16.3812 29.3361V23.2702C16.3812 20.9496 17.4208 19.9215 18.5644 19.9215C19.4554 19.9215 20.3317 20.5971 20.3317 22.2421V29.3361C20.3317 29.9529 21.1634 30.3201 22.4703 30.3201C23.7772 30.3201 24.7129 29.9529 24.7129 29.3361V23.2702C24.7129 20.8468 25.8119 19.9215 26.8961 19.9215C27.7871 19.9215 28.6634 20.5971 28.6634 22.2421V26.6189C28.6634 29.9676 30.4307 31.9651 33.401 31.9651C34.9604 31.9651 36 31.4511 36 30.7313C36 30.6286 36 30.467 35.8366 30.3642C34.1139 29.5417 33.0297 28.6164 33.0297 25.8845V20.5971C33.0297 17.0428 31.099 16.0147 29.1832 16.0147C26.9406 16.0147 25.7525 17.4099 25.1287 18.3793C24.9208 18.7465 24.3416 18.7465 24.2376 18.3793C23.6138 16.5728 22.1584 16.0147 20.7029 16.0147C18.4604 16.0147 17.4208 17.4099 16.797 18.3793C16.5891 18.7465 16.2178 18.585 16.2178 18.2765V16.8812C16.2178 16.3084 15.9505 16 15.4901 16C15.3267 16 15.1782 16.0587 15.0149 16.1028L12.7871 16.8959C12.3119 17.0428 12 17.5128 12 18.2765V29.3361Z" fill="white"/>
</svg>
