<svg width="48" height="48" viewBox="0 0 48 48" fill="none" xmlns="http://www.w3.org/2000/svg">
<path d="M24 0C37.2548 0 48 10.7452 48 24C48 37.2548 37.2548 48 24 48C10.7452 48 0 37.2548 0 24C0 10.7452 10.7452 0 24 0Z" fill="#FFE72D"/>
<path d="M24 0C37.2548 0 48 10.7452 48 24C48 37.2548 37.2548 48 24 48C10.7452 48 0 37.2548 0 24C0 10.7452 10.7452 0 24 0Z" stroke="#E5E7EB"/>
<path d="M24.0314 34.9809C18.0009 34.9809 13.0947 30.0755 13.0947 24.0451C13.0947 18.0144 18.0009 13.1082 24.0314 13.1082C30.0619 13.1082 34.9681 18.0144 34.9681 24.0449C34.9681 30.0755 30.0619 34.9809 24.0314 34.9809Z" fill="black"/>
<path d="M33.1253 22.5626C33.1253 27.5854 29.0536 31.6563 24.0317 31.6563C19.0089 31.6563 14.938 27.5856 14.938 22.5626C14.938 17.5407 19.0089 13.4689 24.0317 13.4689C29.0545 13.4689 33.1253 17.5407 33.1253 22.5626Z" fill="#DDE05B"/>
<path d="M24.0316 31.8893C18.8288 31.8893 14.5952 27.6565 14.5952 22.4538C14.5952 17.2511 18.8289 13.0174 24.0316 13.0174C29.2343 13.0174 33.468 17.2502 33.468 22.4538C33.468 27.6565 29.2343 31.8893 24.0316 31.8893ZM24.0316 13.7011C19.2058 13.7011 15.2798 17.6273 15.2798 22.4538C15.2798 27.2795 19.2058 31.2048 24.0316 31.2048C28.8575 31.2048 32.7835 27.2795 32.7835 22.4536C32.7835 17.6278 28.8573 13.7013 24.0316 13.7013V13.7011Z" fill="black"/>
<path d="M29.8891 28.3087C29.5762 29.7684 28.8376 31.1025 27.7666 32.1425C26.6956 33.1825 25.3403 33.8815 23.8721 34.1513C22.4038 34.421 20.8885 34.2494 19.5178 33.658C18.1471 33.0667 16.9825 32.0822 16.1713 30.829C15.0837 29.1483 14.7082 27.1044 15.1273 25.1469C15.5524 23.1951 16.7338 21.4913 18.4127 20.409C20.0915 19.3266 22.131 18.9539 24.0842 19.3725C26.0374 19.7911 27.7451 20.9669 28.833 22.6422C29.9209 24.3175 30.3003 26.3557 29.8882 28.3103L29.8891 28.3087Z" fill="#9ED5D6"/>
<path d="M22.5247 34.6201C21.9636 34.6198 21.4041 34.56 20.8555 34.442C19.8414 34.2277 18.8798 33.8144 18.0265 33.2261C17.1731 32.6378 16.4449 31.8861 15.8839 31.0146C15.3184 30.1457 14.9309 29.1732 14.7438 28.1535C14.5568 27.1337 14.5739 26.087 14.7942 25.074C15.7049 20.8207 19.9077 18.101 24.162 19.0127C28.4153 19.9245 31.135 24.1272 30.2233 28.3807C30.009 29.3949 29.5955 30.3566 29.0069 31.2099C28.4183 32.0632 27.6663 32.7913 26.7943 33.3519C25.5236 34.1787 24.0405 34.6192 22.5245 34.6201H22.5247ZM22.5074 19.5208C19.1828 19.5208 16.1865 21.8395 15.4624 25.218C15.2617 26.143 15.2465 27.0987 15.4175 28.0297C15.5886 28.9607 15.9426 29.8485 16.459 30.6418C16.971 31.438 17.6358 32.1248 18.415 32.6623C19.1942 33.1999 20.0723 33.5776 20.9984 33.7736C21.9236 33.9746 22.8794 33.99 23.8105 33.8191C24.7417 33.6482 25.6297 33.2943 26.4231 32.7779C27.2195 32.2659 27.9064 31.6009 28.4441 30.8215C28.9817 30.0421 29.3593 29.1638 29.5551 28.2374C30.3872 24.3525 27.9041 20.5148 24.0182 19.6818C23.5218 19.5751 23.0152 19.5211 22.5074 19.5208Z" fill="black"/>
<path d="M33.7849 27.0455C33.7849 28.2877 33.2915 29.4791 32.4131 30.3574C31.5347 31.2358 30.3434 31.7292 29.1012 31.7292C27.859 31.7292 26.6677 31.2358 25.7893 30.3574C24.9109 29.4791 24.4175 28.2877 24.4175 27.0455C24.4175 25.8033 24.9109 24.612 25.7893 23.7336C26.6677 22.8553 27.859 22.3618 29.1012 22.3618C30.3434 22.3618 31.5347 22.8553 32.4131 23.7336C33.2915 24.612 33.7849 25.8033 33.7849 27.0455Z" fill="#FFE72D"/>
<path d="M29.1016 32.071C27.7693 32.0694 26.492 31.5395 25.5499 30.5974C24.6078 29.6553 24.0778 28.378 24.0762 27.0457C24.0777 25.7134 24.6077 24.4361 25.5497 23.4939C26.4918 22.5518 27.7691 22.0218 29.1015 22.0202C30.4338 22.0219 31.711 22.5519 32.6531 23.4939C33.5952 24.436 34.1252 25.7132 34.1269 27.0455C34.1252 28.3778 33.5952 29.655 32.6531 30.5971C31.7111 31.5392 30.4339 32.0692 29.1016 32.071ZM29.1016 22.7048C27.9507 22.7061 26.8472 23.1639 26.0333 23.9776C25.2194 24.7914 24.7614 25.8948 24.7598 27.0457C24.7613 28.1967 25.2192 29.3002 26.0331 30.1141C26.847 30.928 27.9504 31.3859 29.1015 31.3873C30.2525 31.3861 31.3561 30.9283 32.1701 30.1143C32.984 29.3004 33.4418 28.1968 33.4431 27.0457C33.4417 25.8947 32.9838 24.7913 32.1699 23.9775C31.356 23.1637 30.2526 22.706 29.1016 22.7048Z" fill="black"/>
</svg>
