<svg width="49" height="48" viewBox="0 0 49 48" fill="none" xmlns="http://www.w3.org/2000/svg">
<path d="M24.5 0C37.7548 0 48.5 10.7452 48.5 24C48.5 37.2548 37.7548 48 24.5 48C11.2452 48 0.5 37.2548 0.5 24C0.5 10.7452 11.2452 0 24.5 0Z" fill="#21C25E"/>
<path d="M24.5 0C37.7548 0 48.5 10.7452 48.5 24C48.5 37.2548 37.7548 48 24.5 48C11.2452 48 0.5 37.2548 0.5 24C0.5 10.7452 11.2452 0 24.5 0Z" stroke="#E5E7EB"/>
<g clip-path="url(#clip0_3064_6032)">
<path d="M33.86 16.0364H31.3549V18.5794H33.86V16.0364ZM19.8099 17.2734H16.2172V20.4653H19.5537C21.6709 20.4653 22.8895 21.5071 22.8895 23.4611C22.8895 25.415 21.6709 26.5216 19.5537 26.5216H16.2172V20.5334H12.5V34.532H16.2172V29.7127H19.7461C24.0442 29.7127 26.5469 27.3682 26.5469 23.3306C26.5469 19.5531 24.1089 17.2734 19.8099 17.2734ZM36.3626 13.5H28.8564V21.1158H36.3626V13.5ZM35.1432 19.8164H30.1396V14.7337H35.1432V19.8164Z" fill="white"/>
</g>
<defs>
<clipPath id="clip0_3064_6032">
<rect width="24" height="24" fill="white" transform="translate(12.5 12)"/>
</clipPath>
</defs>
</svg>
