<svg width="48" height="48" viewBox="0 0 48 48" fill="none" xmlns="http://www.w3.org/2000/svg">
<g clip-path="url(#clip0_3091_9098)">
<path d="M0 24C0 10.7452 10.7452 0 24 0C37.2548 0 48 10.7452 48 24C48 37.2548 37.2548 48 24 48C10.7452 48 0 37.2548 0 24Z" fill="white"/>
<path d="M16.412 22.3049H19.2693C19.8331 22.3049 20.3461 22.6653 20.3461 23.2673C20.3461 24.0727 19.7017 24.6366 18.8072 24.6366H15.7549L16.412 22.3049Z" fill="#00853F"/>
<path d="M30.4483 22.3176H33.1446C34.4206 22.3176 34.4715 23.1867 34.4715 23.4326C34.4715 24.0091 33.9628 25.141 32.4112 25.141H29.6641C29.6641 25.141 30.4356 22.3897 30.4483 22.3176Z" fill="#00853F"/>
<path d="M15.0635 27.0569H17.5307C18.739 27.0569 18.8068 27.3833 18.9721 27.6631C19.1375 27.9429 19.0611 28.5322 18.9509 28.7357C18.8025 28.99 18.5609 29.7785 17.0178 29.7785H14.2749C14.2749 29.7785 15.0635 27.0611 15.0635 27.0569Z" fill="#00853F"/>
<path d="M-3.09277 15.6449H51.1314V-2.62183H-3.09277V15.6449Z" fill="#FDB823"/>
<path d="M51.1353 19.7825V51.4073H-3.08887V19.7825H13.4948L9.84475 32.3733H17.3145C20.5491 32.3733 21.1129 31.6187 21.77 31.0676C22.6476 30.3342 23.1181 28.5876 22.7239 27.3751C22.4441 26.5145 21.6301 25.9931 21.5411 25.9677C22.5543 25.5013 23.1436 24.4754 23.2156 24.3228C23.5887 23.547 23.8812 22.1353 22.9485 21.0034C22.1727 20.0623 20.6635 19.7994 19.5698 19.7825H27.5694L23.9066 32.3987H27.6118L28.9642 27.6125H31.0839C32.6227 27.6125 32.4828 28.5706 32.521 28.9818L32.6397 32.4963H36.082C36.082 32.4963 35.9252 28.5494 35.9125 28.2612C35.8658 27.248 35.196 26.7901 34.6195 26.7901C35.7217 26.4934 36.6798 25.4929 37.0613 24.8527C37.5022 24.1151 37.8371 22.9408 37.4005 21.775C36.7646 20.0835 35.1324 19.8037 33.992 19.7825H51.1353Z" fill="#00853F"/>
</g>
<defs>
<clipPath id="clip0_3091_9098">
<path d="M0 24C0 10.7452 10.7452 0 24 0C37.2548 0 48 10.7452 48 24C48 37.2548 37.2548 48 24 48C10.7452 48 0 37.2548 0 24Z" fill="white"/>
</clipPath>
</defs>
</svg>
