<svg width="32" height="32" viewBox="0 0 32 32" fill="none" xmlns="http://www.w3.org/2000/svg">
<g clip-path="url(#clip0_1081_9949)">
<path d="M24 0H8C3.58172 0 0 3.58172 0 8V24C0 28.4183 3.58172 32 8 32H24C28.4183 32 32 28.4183 32 24V8C32 3.58172 28.4183 0 24 0Z" fill="#5DD9D7"/>
<path d="M15 20.725C14.3 21.155 13.665 21.39 12.915 21.39C12.165 21.39 11.84 20.85 11.84 20.42V19.69H14.995V17.72H11.84V16.92H9.19995V20.54C9.19995 22.595 10.96 23.58 12.52 23.575C13.695 23.575 14.55 23.13 14.995 22.83V20.725H15Z" fill="#43324D"/>
<path d="M17.7549 20.475C17.6199 20.29 17.8199 20.095 17.9899 20.23C19.4599 21.33 22.7099 20.885 22.7399 19.17C22.7949 17.26 20.9099 16.845 19.6749 16.825C18.4699 16.805 17.4949 17.095 16.7449 17.705C15.9949 18.315 15.6099 19.13 15.5949 20.15C15.5249 24.065 20.7249 24.235 22.7899 22.605V20.39C22.0499 21.475 18.7249 21.84 17.7549 20.475ZM18.3699 19.23C18.8249 18.655 20.2549 18.645 20.6899 19.23C20.7849 19.36 20.7049 19.5 20.5649 19.5H18.5149C18.3499 19.495 18.2699 19.355 18.3699 19.23Z" fill="#43324D"/>
<path d="M18.7249 10.345C17.9999 9.73499 17.0449 9.42999 15.8649 9.42999C14.6849 9.42999 13.7299 9.73499 13.0099 10.345C12.2849 10.96 11.9199 11.765 11.9199 12.76C11.9199 13.755 12.2849 14.56 13.0099 15.17C13.7299 15.785 14.6899 16.09 15.8649 16.09C17.0399 16.09 17.9999 15.785 18.7249 15.17C19.4499 14.56 19.8149 13.755 19.8149 12.76C19.8149 11.765 19.4499 10.96 18.7249 10.345ZM16.9299 13.565C16.6599 13.77 16.3049 13.87 15.8649 13.87C15.4249 13.87 15.0699 13.77 14.8049 13.565C14.5349 13.36 14.3999 13.09 14.3999 12.76C14.3999 12.43 14.5349 12.155 14.8049 11.955C15.0699 11.75 15.4249 11.65 15.8649 11.65C16.3049 11.65 16.6599 11.75 16.9299 11.955C17.1999 12.16 17.3349 12.43 17.3349 12.76C17.3349 13.09 17.1999 13.365 16.9299 13.565Z" fill="#43324D"/>
<path d="M7.25497 11.75C6.75497 11.83 6.48497 11.825 6.43997 11.535C6.42997 11.37 6.51497 11.215 7.15997 11.105C8.87997 10.83 10.265 11.355 11.145 11.825V10.065C10.39 9.63498 9.20497 9.41998 7.85497 9.41998C7.12497 9.41998 4.26497 9.45498 4.19997 11.48C4.19997 12.885 5.98997 13.99 8.64997 13.465C8.96497 13.395 9.23497 13.365 9.29997 13.605C9.35997 13.88 9.23497 13.995 8.29497 14.155C6.86497 14.36 4.79497 13.86 4.09497 12.94V15.13C5.30997 15.795 6.45497 16.09 7.52997 16.09C10.215 16.09 11.6 15.07 11.6 13.82C11.6 11.58 8.62497 11.58 7.25497 11.755V11.75Z" fill="#43324D"/>
<path d="M25.85 13.53C26.62 13.28 27.445 12.705 27.445 11.685C27.445 10.295 26.07 9.52002 24.3 9.52002H20.27V16.005H22.845V13.83C22.845 13.73 22.91 13.645 23.005 13.615C23.12 13.58 23.245 13.65 23.28 13.765C23.62 14.895 24.645 15.67 25.71 15.945C26.61 16.18 27.375 16.095 27.91 15.96V13.89C26.86 14.13 26.16 13.95 25.85 13.53ZM22.84 12.04V11.51C22.84 11.45 22.89 11.4 22.95 11.4H24.46C24.71 11.4 24.89 11.575 24.89 11.78C24.89 11.985 24.715 12.15 24.5 12.15H22.95C22.89 12.15 22.84 12.1 22.84 12.04Z" fill="#43324D"/>
</g>
<defs>
<clipPath id="clip0_1081_9949">
<rect width="32" height="32" fill="white"/>
</clipPath>
</defs>
</svg>
