<svg width="128" height="128" viewBox="0 0 128 128" fill="none" xmlns="http://www.w3.org/2000/svg">
<g clip-path="url(#clip0_3087_14482)">
<path d="M96 0H32C14.3269 0 0 14.3269 0 32V96C0 113.673 14.3269 128 32 128H96C113.673 128 128 113.673 128 96V32C128 14.3269 113.673 0 96 0Z" fill="#5DD9D7"/>
<path d="M60.0001 82.9C57.2001 84.62 54.6601 85.56 51.6601 85.56C48.6601 85.56 47.3601 83.4 47.3601 81.68V78.76H59.9801V70.88H47.3601V67.68H36.8V82.16C36.8 90.38 43.8401 94.32 50.0801 94.3C54.7801 94.3 58.2001 92.52 59.9801 91.32V82.9H60.0001Z" fill="#43324D"/>
<path d="M71.02 81.9C70.48 81.16 71.28 80.38 71.96 80.92C77.84 85.32 90.84 83.54 90.96 76.68C91.18 69.04 83.64 67.38 78.7 67.3C73.88 67.22 69.98 68.38 66.98 70.82C63.98 73.26 62.44 76.52 62.38 80.6C62.1 96.26 82.9 96.94 91.16 90.42V81.56C88.2 85.9 74.9 87.36 71.02 81.9ZM73.48 76.92C75.3 74.62 81.02 74.58 82.76 76.92C83.14 77.44 82.82 78 82.26 78H74.06C73.4 77.98 73.08 77.42 73.48 76.92Z" fill="#43324D"/>
<path d="M74.8999 41.38C71.9999 38.94 68.1799 37.72 63.4599 37.72C58.7399 37.72 54.9199 38.94 52.0399 41.38C49.1399 43.84 47.6799 47.06 47.6799 51.04C47.6799 55.02 49.1399 58.24 52.0399 60.68C54.9199 63.14 58.7599 64.36 63.4599 64.36C68.1599 64.36 71.9999 63.14 74.8999 60.68C77.7999 58.24 79.2599 55.02 79.2599 51.04C79.2599 47.06 77.7999 43.84 74.8999 41.38ZM67.7199 54.26C66.6399 55.08 65.2199 55.48 63.4599 55.48C61.6999 55.48 60.2799 55.08 59.2199 54.26C58.1399 53.44 57.5999 52.36 57.5999 51.04C57.5999 49.72 58.1399 48.62 59.2199 47.82C60.2799 47 61.6999 46.6 63.4599 46.6C65.2199 46.6 66.6399 47 67.7199 47.82C68.7999 48.64 69.3399 49.72 69.3399 51.04C69.3399 52.36 68.7999 53.46 67.7199 54.26Z" fill="#43324D"/>
<path d="M29.0199 47C27.0199 47.32 25.9399 47.3 25.7599 46.14C25.7199 45.48 26.0599 44.86 28.6399 44.42C35.5199 43.32 41.0599 45.42 44.5799 47.3V40.26C41.5599 38.54 36.8199 37.68 31.4199 37.68C28.4999 37.68 17.0599 37.82 16.7999 45.92C16.7999 51.54 23.9599 55.96 34.5999 53.86C35.8599 53.58 36.9399 53.46 37.1999 54.42C37.4399 55.52 36.9399 55.98 33.1799 56.62C27.4599 57.44 19.1799 55.44 16.3799 51.76V60.52C21.2399 63.18 25.8199 64.36 30.1199 64.36C40.8599 64.36 46.3999 60.28 46.3999 55.28C46.3999 46.32 34.4999 46.32 29.0199 47.02V47Z" fill="#43324D"/>
<path d="M103.4 54.12C106.48 53.12 109.78 50.82 109.78 46.74C109.78 41.18 104.28 38.08 97.2001 38.08H81.0801V64.02H91.3801V55.32C91.3801 54.92 91.6401 54.58 92.0201 54.46C92.4801 54.32 92.9801 54.6 93.1201 55.06C94.4801 59.58 98.5801 62.68 102.84 63.78C106.44 64.72 109.5 64.38 111.64 63.84V55.56C107.44 56.52 104.64 55.8 103.4 54.12ZM91.3601 48.16V46.04C91.3601 45.8 91.5601 45.6 91.8001 45.6H97.8401C98.8401 45.6 99.5601 46.3 99.5601 47.12C99.5601 47.94 98.8601 48.6 98.0001 48.6H91.8001C91.5601 48.6 91.3601 48.4 91.3601 48.16Z" fill="#43324D"/>
</g>
<defs>
<clipPath id="clip0_3087_14482">
<rect width="128" height="128" fill="white"/>
</clipPath>
</defs>
</svg>
