<svg width="16" height="16" viewBox="0 0 16 16" fill="none" xmlns="http://www.w3.org/2000/svg">
<g clip-path="url(#clip0_1081_9956)">
<path d="M12 0H4C1.79086 0 0 1.79086 0 4V12C0 14.2091 1.79086 16 4 16H12C14.2091 16 16 14.2091 16 12V4C16 1.79086 14.2091 0 12 0Z" fill="#5DD9D7"/>
<path d="M7.5001 10.3625C7.1501 10.5775 6.8326 10.695 6.4576 10.695C6.0826 10.695 5.9201 10.425 5.9201 10.21V9.84502H7.4976V8.86002H5.9201V8.46002H4.6001V10.27C4.6001 11.2975 5.4801 11.79 6.2601 11.7875C6.8476 11.7875 7.2751 11.565 7.4976 11.415V10.3625H7.5001Z" fill="#43324D"/>
<path d="M8.87747 10.2375C8.80997 10.145 8.90997 10.0475 8.99497 10.115C9.72997 10.665 11.355 10.4425 11.37 9.58497C11.3975 8.62997 10.455 8.42247 9.83747 8.41247C9.23497 8.40247 8.74747 8.54747 8.37247 8.85247C7.99747 9.15747 7.80497 9.56497 7.79747 10.075C7.76247 12.0325 10.3625 12.1175 11.395 11.3025V10.195C11.025 10.7375 9.36247 10.92 8.87747 10.2375ZM9.18497 9.61497C9.41247 9.32747 10.1275 9.32247 10.345 9.61497C10.3925 9.67997 10.3525 9.74997 10.2825 9.74997H9.25747C9.17497 9.74747 9.13497 9.67747 9.18497 9.61497Z" fill="#43324D"/>
<path d="M9.36246 5.17253C8.99996 4.86753 8.52246 4.71503 7.93246 4.71503C7.34246 4.71503 6.86496 4.86753 6.50496 5.17253C6.14246 5.48003 5.95996 5.88253 5.95996 6.38003C5.95996 6.87753 6.14246 7.28003 6.50496 7.58503C6.86496 7.89253 7.34496 8.04503 7.93246 8.04503C8.51996 8.04503 8.99996 7.89253 9.36246 7.58503C9.72496 7.28003 9.90746 6.87753 9.90746 6.38003C9.90746 5.88253 9.72496 5.48003 9.36246 5.17253ZM8.46496 6.78253C8.32996 6.88503 8.15246 6.93503 7.93246 6.93503C7.71246 6.93503 7.53496 6.88503 7.40246 6.78253C7.26746 6.68003 7.19996 6.54503 7.19996 6.38003C7.19996 6.21503 7.26746 6.07753 7.40246 5.97753C7.53496 5.87503 7.71246 5.82503 7.93246 5.82503C8.15246 5.82503 8.32996 5.87503 8.46496 5.97753C8.59996 6.08003 8.66746 6.21503 8.66746 6.38003C8.66746 6.54503 8.59996 6.68253 8.46496 6.78253Z" fill="#43324D"/>
<path d="M3.62761 5.87502C3.37761 5.91502 3.24261 5.91252 3.22011 5.76752C3.21511 5.68502 3.25761 5.60752 3.58011 5.55252C4.44011 5.41502 5.13261 5.67752 5.57261 5.91252V5.03252C5.19511 4.81752 4.60261 4.71002 3.92761 4.71002C3.56261 4.71002 2.13261 4.72752 2.10011 5.74002C2.10011 6.44252 2.99511 6.99502 4.32511 6.73252C4.48261 6.69752 4.61761 6.68252 4.65011 6.80252C4.68011 6.94002 4.61761 6.99752 4.14761 7.07752C3.43261 7.18002 2.39761 6.93002 2.04761 6.47002V7.56502C2.65511 7.89752 3.22761 8.04502 3.76511 8.04502C5.10761 8.04502 5.80011 7.53502 5.80011 6.91002C5.80011 5.79002 4.31261 5.79002 3.62761 5.87752V5.87502Z" fill="#43324D"/>
<path d="M12.925 6.76501C13.31 6.64001 13.7225 6.35251 13.7225 5.84251C13.7225 5.14751 13.035 4.76001 12.15 4.76001H10.135V8.00251H11.4225V6.91501C11.4225 6.86501 11.455 6.82251 11.5025 6.80751C11.56 6.79001 11.6225 6.82501 11.64 6.88251C11.81 7.44751 12.3225 7.83501 12.855 7.97251C13.305 8.09001 13.6875 8.04751 13.955 7.98001V6.94501C13.43 7.06501 13.08 6.97501 12.925 6.76501ZM11.42 6.02001V5.75501C11.42 5.72501 11.445 5.70001 11.475 5.70001H12.23C12.355 5.70001 12.445 5.78751 12.445 5.89001C12.445 5.99251 12.3575 6.07501 12.25 6.07501H11.475C11.445 6.07501 11.42 6.05001 11.42 6.02001Z" fill="#43324D"/>
</g>
<defs>
<clipPath id="clip0_1081_9956">
<rect width="16" height="16" fill="white"/>
</clipPath>
</defs>
</svg>
