<svg width="64" height="64" viewBox="0 0 64 64" fill="none" xmlns="http://www.w3.org/2000/svg">
<g clip-path="url(#clip0_3087_14474)">
<path d="M48 0H16C7.16344 0 0 7.16344 0 16V48C0 56.8366 7.16344 64 16 64H48C56.8366 64 64 56.8366 64 48V16C64 7.16344 56.8366 0 48 0Z" fill="#5DD9D7"/>
<path d="M29.9999 41.45C28.5999 42.31 27.3299 42.78 25.8299 42.78C24.3299 42.78 23.6799 41.7 23.6799 40.84V39.38H29.9899V35.44H23.6799V33.84H18.3999V41.08C18.3999 45.19 21.9199 47.16 25.0399 47.15C27.3899 47.15 29.0999 46.26 29.9899 45.66V41.45H29.9999Z" fill="#43324D"/>
<path d="M35.5101 40.95C35.2401 40.58 35.6401 40.19 35.9801 40.46C38.9201 42.66 45.4201 41.77 45.4801 38.34C45.5901 34.52 41.8201 33.69 39.3501 33.65C36.9401 33.61 34.9901 34.19 33.4901 35.41C31.9901 36.63 31.2201 38.26 31.1901 40.3C31.0501 48.13 41.4501 48.47 45.5801 45.21V40.78C44.1001 42.95 37.4501 43.68 35.5101 40.95ZM36.7401 38.46C37.6501 37.31 40.5101 37.29 41.3801 38.46C41.5701 38.72 41.4101 39 41.1301 39H37.0301C36.7001 38.99 36.5401 38.71 36.7401 38.46Z" fill="#43324D"/>
<path d="M37.4501 20.69C36.0001 19.47 34.0901 18.86 31.7301 18.86C29.3701 18.86 27.4601 19.47 26.0201 20.69C24.5701 21.92 23.8401 23.53 23.8401 25.52C23.8401 27.51 24.5701 29.12 26.0201 30.34C27.4601 31.57 29.3801 32.18 31.7301 32.18C34.0801 32.18 36.0001 31.57 37.4501 30.34C38.9001 29.12 39.6301 27.51 39.6301 25.52C39.6301 23.53 38.9001 21.92 37.4501 20.69ZM33.8601 27.13C33.3201 27.54 32.6101 27.74 31.7301 27.74C30.8501 27.74 30.1401 27.54 29.6101 27.13C29.0701 26.72 28.8001 26.18 28.8001 25.52C28.8001 24.86 29.0701 24.31 29.6101 23.91C30.1401 23.5 30.8501 23.3 31.7301 23.3C32.6101 23.3 33.3201 23.5 33.8601 23.91C34.4001 24.32 34.6701 24.86 34.6701 25.52C34.6701 26.18 34.4001 26.73 33.8601 27.13Z" fill="#43324D"/>
<path d="M14.5099 23.5C13.5099 23.66 12.9699 23.65 12.8799 23.07C12.8599 22.74 13.0299 22.43 14.3199 22.21C17.7599 21.66 20.5299 22.71 22.2899 23.65V20.13C20.7799 19.27 18.4099 18.84 15.7099 18.84C14.2499 18.84 8.52994 18.91 8.39994 22.96C8.39994 25.77 11.9799 27.98 17.2999 26.93C17.9299 26.79 18.4699 26.73 18.5999 27.21C18.7199 27.76 18.4699 27.99 16.5899 28.31C13.7299 28.72 9.58994 27.72 8.18994 25.88V30.26C10.6199 31.59 12.9099 32.18 15.0599 32.18C20.4299 32.18 23.1999 30.14 23.1999 27.64C23.1999 23.16 17.2499 23.16 14.5099 23.51V23.5Z" fill="#43324D"/>
<path d="M51.7 27.06C53.24 26.56 54.89 25.41 54.89 23.37C54.89 20.59 52.14 19.04 48.6 19.04H40.54V32.01H45.69V27.66C45.69 27.46 45.82 27.29 46.01 27.23C46.24 27.16 46.49 27.3 46.56 27.53C47.24 29.79 49.29 31.34 51.42 31.89C53.22 32.36 54.75 32.19 55.82 31.92V27.78C53.72 28.26 52.32 27.9 51.7 27.06ZM45.68 24.08V23.02C45.68 22.9 45.78 22.8 45.9 22.8H48.92C49.42 22.8 49.78 23.15 49.78 23.56C49.78 23.97 49.43 24.3 49 24.3H45.9C45.78 24.3 45.68 24.2 45.68 24.08Z" fill="#43324D"/>
</g>
<defs>
<clipPath id="clip0_3087_14474">
<rect width="64" height="64" fill="white"/>
</clipPath>
</defs>
</svg>
